# xmcd CD database file
#
# Track frame offsets:
#	150
#	22600
#	44102
#	70180
#	93512
#	113875
#	148020
#	176830
#	198640
#	221112
#	254680
#	276392
#	309275
#
# Disc length: 4462 seconds
#
# Revision: 0
# Processed by: cddbd v1.5.1PL0 Copyright (c) Steve Scherf et al.
# Submitted via: CDex 1.51
#
DISCID=cc116c0d
DTITLE=Chris Beckers - Crossover
DYEAR=1982
DGENRE=Jazz
TTITLE0=Splash
TTITLE1=Seven Star Motel
TTITLE2=Skyline Filters
TTITLE3=Graffity Skills
TTITLE4=Funky red Shoes
TTITLE5=Nightcruising
TTITLE6=Dangs
TTITLE7=Chat in the Chocolate Factory
TTITLE8=Windstrider
TTITLE9=Gentle Grand
TTITLE10=Brazilian Air
TTITLE11=Tobago Beach
TTITLE12=Cruising
EXTD=YEAR: 1982
EXTT0=
EXTT1=
EXTT2=
EXTT3=
EXTT4=
EXTT5=
EXTT6=
EXTT7=
EXTT8=
EXTT9=
EXTT10=
EXTT11=
EXTT12=
PLAYORDER=
